<svg height="512" viewBox="0 0 58 58" width="512" xmlns="http://www.w3.org/2000/svg"><g id="Page-1" fill="none" fill-rule="evenodd"><g id="015---Email-Address" fill-rule="nonzero"><path id="Shape" d="m57.27 23.48c-.172698-.2463564-.3741159-.471273-.6-.67l-11.19-10.03-.01-.01h-32.94l-.01.01-11.19 10.03c-.84132241.763081-1.32382812 1.844184-1.33 2.98v28.21c.00385309 2.207541 1.79245897 3.9961469 4 4h50c2.207541-.0038531 3.9961469-1.792459 4-4v-28.21c.0005774-.8268364-.2543888-1.6336474-.73-2.31z" fill="#f0c419"/><path id="Shape" d="m57.27 23.48-23.44 17.02-2.54 1.84c-1.3734716.9950195-3.2253154 1.0150611-4.62.05l-2.62-1.81-23.72-16.37c.22308789-.5363316.56501209-1.0150255 1-1.4l11.19-10.03.01-.01h32.94l.01.01 11.19 10.03c.2258841.198727.427302.4236436.6.67z" fill="#f0c419"/><path id="Shape" d="m24.05 40.58-22.68 16.43c-.87170949-.757073-1.37162562-1.8554289-1.37-3.01v-28.21c-.0026412-.544044.10981998-1.0824946.33-1.58z" fill="#f29c1f"/><path id="Shape" d="m56.63 57.01c-.7273468.6384446-1.662196.990346-2.63.99h-50c-.96780405.000346-1.90265323-.3515554-2.63-.99l22.68-16.43 2.62 1.81c1.3946846.9650611 3.2465284.9450195 4.62-.05l2.54-1.84z" fill="#e57e25"/><path id="Shape" d="m58 25.79v28.21c.0016256 1.1545711-.4982905 2.252927-1.37 3.01l-22.8-16.51 23.44-17.02c.4756112.6763526.7305774 1.4831636.73 2.31z" fill="#f29c1f"/><circle id="Oval" cx="29" cy="17" fill="#ff5364" r="17"/><path id="Shape" d="m41.9 11.55c-2.3950936-5.68143353-8.2219175-9.13024698-14.3548999-8.49645915s-11.1313932 5.20129063-12.3140302 11.25245005c-1.182637 6.0511593 1.728319 12.1644667 7.1713994 15.0606772 5.4430805 2.8962106 12.1396236 1.8949608 16.4975307-2.4666681.2820534-.2865801.3661645-.7136834.2138325-1.0858086-.152332-.3721253-.5117884-.6176512-.9138325-.6241914-.2678048-.0016564-.5245223.1068157-.71.3-2.8247689 2.8259825-6.8705032 4.0611976-10.7920278 3.2949457-3.9215245-.7662519-7.2047285-3.4335152-8.7579722-7.1149457-1.2533872-2.987184-1.2533872-6.352816 0-9.34 1.5547648-3.67994918 4.837813-6.34573758 8.7585789-7.11184119 3.9207658-.7661036 7.9658006.4678036 10.7914211 3.29184119 1.0916459 1.09843705 1.9638818 2.3949121 2.57 3.82.6216693 1.4783915.9412749 3.0662193.94 4.67v2.5c0 1.3807119-1.1192881 2.5-2.5 2.5s-2.5-1.1192881-2.5-2.5v-8.5c0-.5522847-.4477153-1-1-1s-1 .4477153-1 1v1.11c-2.0303262-2.0717012-5.1286925-2.67521475-7.7881538-1.5170113-2.6594614 1.1582035-4.3280494 3.8377401-4.1942169 6.73537s2.0423088 5.411953 4.7972077 6.320084c2.754899.9081309 5.7844442.0215882 7.615163-2.2284427.7063968 1.4917622 2.1720167 2.4777944 3.82 2.57.0830589.0083229.1665417.0116622.25.01 2.4837286-.0037447 4.4962553-2.0162714 4.5-4.5v-2.5c.0032865-1.8721269-.3708308-3.7257081-1.1-5.45zm-12.9 10.45c-2.7614237 0-5-2.2385763-5-5s2.2385763-5 5-5 5 2.2385763 5 5c-.0009934 2.7610122-2.2389878 4.9990066-5 5z" fill="#fff"/></g></g></svg>